<?xml version="1.0" standalone="no"?>
<!DOCTYPE svg PUBLIC "-//W3C//DTD SVG 20010904//EN"
 "http://www.w3.org/TR/2001/REC-SVG-20010904/DTD/svg10.dtd">
<svg version="1.0" xmlns="http://www.w3.org/2000/svg"
 width="512.000000pt" height="512.000000pt" viewBox="0 0 512.000000 512.000000"
 preserveAspectRatio="xMidYMid meet">
<metadata>
Created by potrace 1.14, written by Peter Selinger 2001-2017
</metadata>
<g transform="translate(0.000000,512.000000) scale(0.100000,-0.100000)"
fill="#000000" stroke="none">
<path d="M2515 4693 c-402 -58 -704 -254 -869 -565 -36 -69 -81 -204 -91 -273
-3 -22 -8 -51 -11 -63 -6 -29 -5 -213 1 -262 9 -63 27 -142 46 -201 l19 -57
-25 -50 c-24 -47 -44 -148 -39 -189 14 -97 18 -117 38 -173 26 -69 60 -121
110 -167 25 -23 46 -51 46 -61 0 -47 100 -301 122 -310 4 -2 8 -8 8 -13 0 -5
17 -32 38 -60 l37 -50 0 -146 1 -145 -105 -92 c-58 -50 -120 -105 -138 -121
l-33 -31 75 -257 c41 -142 75 -270 75 -285 0 -42 -23 -66 -135 -146 l-104 -74
219 -292 c121 -161 222 -295 224 -298 7 -6 627 -4 633 2 3 3 6 302 7 665 l1
660 -95 0 c-140 0 -292 55 -377 136 l-43 42 0 230 c0 255 5 232 -72 317 -52
57 -148 285 -148 352 0 66 -38 121 -87 128 -43 6 -87 112 -88 212 0 56 3 65
38 109 43 56 46 82 17 154 -46 118 -63 211 -63 346 1 186 34 302 128 445 94
142 216 235 420 319 30 12 91 31 117 36 13 3 34 7 48 10 64 14 79 16 145 21
39 3 76 7 83 9 7 3 30 -30 56 -84 25 -48 55 -95 68 -103 13 -8 57 -18 100 -21
138 -12 244 -71 322 -181 87 -122 136 -291 137 -469 0 -163 -13 -231 -66 -340
-28 -57 -32 -73 -24 -96 10 -29 40 -66 58 -72 17 -6 24 -101 12 -164 -16 -87
-40 -128 -86 -143 -48 -16 -73 -44 -81 -91 -29 -172 -102 -356 -172 -433 l-37
-41 -3 -170 c-3 -161 -2 -169 15 -162 10 4 52 9 93 10 41 2 80 4 85 4 7 1 10
42 10 112 -1 101 1 114 23 146 59 86 131 259 171 410 8 30 20 46 46 62 75 44
141 201 148 351 4 70 -15 172 -38 206 -12 18 -11 29 6 80 66 198 59 481 -18
703 -70 204 -209 364 -378 434 -48 20 -151 47 -180 47 -17 0 -31 18 -64 84
-59 119 -72 128 -191 124 -53 -1 -136 -8 -185 -15z m-452 -3079 c28 -25 96
-68 153 -95 l102 -50 71 -174 c63 -154 70 -177 60 -202 -6 -15 -12 -35 -14
-43 -2 -8 -31 -112 -65 -230 -34 -118 -70 -246 -81 -285 -11 -38 -22 -77 -25
-85 -3 -8 -21 37 -40 100 -19 63 -38 129 -43 145 -13 41 -78 302 -85 340 -2
17 -7 41 -10 55 -9 38 -18 84 -41 215 -9 52 -25 192 -31 262 -3 38 -7 74 -9
81 -7 21 5 14 58 -34z"/>
<path d="M3720 2139 c-44 -18 -90 -59 -112 -102 -18 -36 -22 -59 -22 -167 l-1
-125 -292 -5 -291 -5 -44 -31 c-24 -18 -53 -52 -66 -77 -24 -45 -24 -48 -24
-390 1 -376 1 -380 58 -405 17 -9 149 -12 444 -12 l420 0 0 59 c0 125 26 145
184 144 61 -1 123 -1 138 -2 31 -1 75 -41 83 -74 3 -12 4 -46 3 -74 l-3 -53
423 0 c475 0 472 0 493 70 7 22 9 160 7 375 l-3 340 -28 41 c-15 22 -46 51
-70 65 -41 23 -48 24 -327 29 l-285 5 -2 122 c-1 103 -5 130 -23 167 -21 45
-61 81 -113 104 -35 15 -509 16 -547 1z m476 -296 l1 -103 -203 0 -204 0 0
103 0 102 203 0 202 0 1 -102z"/>
<path d="M1425 1494 c-76 -26 -77 -26 -180 -75 -185 -87 -386 -253 -510 -418
-121 -160 -205 -363 -219 -531 -8 -84 8 -130 52 -150 18 -8 197 -11 604 -11
319 -1 582 2 585 4 2 3 -91 132 -208 286 -180 238 -212 287 -214 318 -3 44 17
74 73 112 20 13 39 27 42 30 3 3 30 23 60 44 104 71 99 42 41 238 -28 94 -52
173 -53 174 -2 2 -34 -8 -73 -21z"/>
<path d="M2867 400 c1 -134 6 -243 12 -262 15 -46 59 -94 106 -117 39 -20 63
-20 999 -21 697 0 969 3 997 11 42 13 91 56 117 103 14 26 17 70 20 275 l3
243 -28 -7 c-34 -10 -2132 -12 -2188 -2 l-40 6 2 -229z"/>
</g>
</svg>
