<?xml version="1.0" standalone="no"?>
<!DOCTYPE svg PUBLIC "-//W3C//DTD SVG 1.1//EN" "http://www.w3.org/Graphics/SVG/1.1/DTD/svg11.dtd" >
<svg xmlns="http://www.w3.org/2000/svg">
<metadata>Generated by IcoMoon</metadata>
<defs>
<font id="icomoon" horiz-adv-x="1024">
<font-face units-per-em="1024" ascent="960" descent="-64" />
<missing-glyph horiz-adv-x="1024" />
<glyph unicode="&#x20;" horiz-adv-x="512" d="" />
<glyph unicode="&#xe900;" glyph-name="black-minus" d="M0 544v-192c0-17.664 14.336-32 32-32h960c17.664 0 32 14.336 32 32v192c0 17.664-14.336 32-32 32h-960c-17.664 0-32-14.336-32-32z" />
<glyph unicode="&#xe901;" glyph-name="black-plus" d="M992 576h-352v352c0 17.664-14.336 32-32 32h-192c-17.664 0-32-14.336-32-32v-352h-352c-17.664 0-32-14.336-32-32v-192c0-17.664 14.336-32 32-32h352v-352c0-17.664 14.336-32 32-32h192c17.664 0 32 14.336 32 32v352h352c17.664 0 32 14.336 32 32v192c0 17.664-14.336 32-32 32z" />
<glyph unicode="&#xe902;" glyph-name="bx-minus" d="M213.333 490.667h597.333v-85.333h-597.333z" />
<glyph unicode="&#xe903;" glyph-name="bx-plus" d="M810.667 490.667h-256v256h-85.333v-256h-256v-85.333h256v-256h85.333v256h256z" />
<glyph unicode="&#xe904;" glyph-name="angle-up" d="M546 640.6l272-272c18.8-18.8 18.8-49.2 0-67.8l-45.2-45.2c-18.8-18.8-49.2-18.8-67.8 0l-193 192.6-192.8-192.8c-18.8-18.8-49.2-18.8-67.8 0l-45.4 45.2c-18.8 18.8-18.8 49.2 0 67.8l272 272c18.8 19 49.2 19 68 0.2z" />
<glyph unicode="&#xe905;" glyph-name="arrow-right" d="M941.2 402.8c25 25 25 65.6 0 90.6l-320 320c-25 25-65.6 25-90.6 0s-25-65.6 0-90.6l211-210.8h-613.6c-35.4 0-64-28.6-64-64s28.6-64 64-64h613.4l-210.6-210.8c-25-25-25-65.6 0-90.6s65.6-25 90.6 0l320 320z" />
<glyph unicode="&#xe906;" glyph-name="arrow-up" d="M512 0c17.673 0 32 14.327 32 32v0 754.752l201.344-201.408c5.798-5.798 13.808-9.384 22.656-9.384 17.695 0 32.040 14.345 32.040 32.040 0 8.848-3.586 16.858-9.384 22.656v0l-256 256c-5.794 5.808-13.805 9.401-22.656 9.401s-16.862-3.593-22.655-9.401l-256.001-256.001c-5.798-5.798-9.384-13.808-9.384-22.656 0-17.695 14.345-32.040 32.040-32.040 8.848 0 16.858 3.586 22.656 9.384v0l201.344 201.408v-754.752c0-17.673 14.327-32 32-32v0z" />
<glyph unicode="&#xe907;" glyph-name="arrow-up-circle" d="M64 448c0-247.424 200.576-448 448-448s448 200.576 448 448v0c0 247.424-200.576 448-448 448s-448-200.576-448-448v0zM1024 448c0-282.77-229.23-512-512-512s-512 229.23-512 512v0c0 282.77 229.23 512 512 512s512-229.23 512-512v0zM544 224c0-17.673-14.327-32-32-32s-32 14.327-32 32v0 370.752l-137.344-137.408c-5.798-5.798-13.808-9.384-22.656-9.384-17.695 0-32.040 14.345-32.040 32.040 0 8.848 3.586 16.858 9.384 22.656v0l192 192c5.794 5.808 13.805 9.401 22.656 9.401s16.862-3.593 22.655-9.401l192.001-192.001c5.798-5.798 9.384-13.808 9.384-22.656 0-17.695-14.345-32.040-32.040-32.040-8.848 0-16.858 3.586-22.656 9.384v0l-137.344 137.408v-370.752z" />
<glyph unicode="&#xe908;" glyph-name="arrow-up-short" d="M512 192c17.673 0 32 14.327 32 32v0 370.752l137.344-137.408c5.798-5.798 13.808-9.384 22.656-9.384 17.695 0 32.040 14.345 32.040 32.040 0 8.848-3.586 16.858-9.384 22.656v0l-192 192c-5.794 5.808-13.805 9.401-22.656 9.401s-16.862-3.593-22.655-9.401l-192.001-192.001c-5.798-5.798-9.384-13.808-9.384-22.656 0-17.695 14.345-32.040 32.040-32.040 8.848 0 16.858 3.586 22.656 9.384v0l137.344 137.408v-370.752c0-17.673 14.327-32 32-32v0z" />
<glyph unicode="&#xe909;" glyph-name="arrow-up-square" d="M960 832c0 35.346-28.654 64-64 64v0h-768c-35.346 0-64-28.654-64-64v0-768c0-35.346 28.654-64 64-64v0h768c35.346 0 64 28.654 64 64v0 768zM0 832c0 70.692 57.308 128 128 128v0h768c70.692 0 128-57.308 128-128v0-768c0-70.692-57.308-128-128-128v0h-768c-70.692 0-128 57.308-128 128v0 768zM544 224c0-17.673-14.327-32-32-32s-32 14.327-32 32v0 370.752l-137.344-137.408c-5.798-5.798-13.808-9.384-22.656-9.384-17.695 0-32.040 14.345-32.040 32.040 0 8.848 3.586 16.858 9.384 22.656v0l192 192c5.794 5.808 13.805 9.401 22.656 9.401s16.862-3.593 22.655-9.401l192.001-192.001c5.798-5.798 9.384-13.808 9.384-22.656 0-17.695-14.345-32.040-32.040-32.040-8.848 0-16.858 3.586-22.656 9.384v0l-137.344 137.408v-370.752z" />
<glyph unicode="&#xe90a;" glyph-name="bxs-chevron-up" d="M512 666.496l-301.269-301.227 90.539-90.539 210.731 210.773 210.731-210.773 90.539 90.539z" />
<glyph unicode="&#xe90b;" glyph-name="bx-up-arrow-alt" d="M469.333 601.003v-409.003h85.333v409.003l183.168-183.168 60.331 60.331-286.165 286.165-286.165-286.165 60.331-60.331z" />
<glyph unicode="&#xe90c;" glyph-name="call" d="M284.668 896.562c20.652-20.325 44.492-52.75 64.861-83.722 20.615-31.345 39.755-64.4 50.518-87.487l0.015-0.031c6.045-12.998 11.556-24.905 15.436-35.372 3.948-10.639 7.305-22.539 7.327-35.608 0.046-27.404-14.867-48.454-28.611-67.165v-0.002c-2.795-3.804-5.526-7.402-8.002-10.652l-0.436-0.573c-2.359-3.099-4.437-5.825-6.394-8.48-4.199-5.689-6.951-9.846-8.836-13.422-2.955-5.605-3.733-9.345-2.37-15.694 2.084-9.709 11.383-31.676 29.793-60.765 17.753-28.050 42.071-59.703 71.119-88.659 29.040-28.945 60.188-52.615 87.673-69.734 28.391-17.681 50.017-26.597 60.041-28.736 6.592-1.407 10.505-0.58 16.119 2.34 3.565 1.855 7.718 4.578 13.35 8.723 2.784 2.052 5.678 4.259 8.966 6.774l0.463 0.353c3.091 2.363 6.497 4.968 10.069 7.623l0.008 0.004 0.641 0.478c18.641 13.851 40.232 29.893 67.686 29.863 13.627-0.015 25.778-3.865 36.284-8.15 10.005-4.085 21.47-9.861 33.898-16.122l1.111-0.558c21.982-11.086 54.598-29.825 86.156-50.24 30.959-20.029 63.814-43.52 84.362-64.22l0.030-0.034c9.455-9.55 17.37-17.935 23.287-25.445 5.715-7.255 12.186-16.877 14.924-28.96 3.091-13.646 0.273-24.982-2.552-32.722-1.267-3.474-2.757-6.793-3.793-9.098-0.163-0.364-0.322-0.717-0.478-1.062-0.967-2.143-1.798-3.982-2.678-6.087l-0.046-0.114c-9.265-21.967-20.533-43.035-33.667-62.934l-0.083-0.125c-25.634-38.514-49.948-63.954-87.817-81.594-19.725-9.186-47.9-18.432-91.493-12.997-41.829 5.215-95.972 23.696-169.563 64.906l-0.019 0.011c-117.669 65.991-199.403 122.937-304.775 228.011-105.040 104.736-156.735 173.185-229.059 304.564-72.846 132.327-73.208 214.746-51.904 260.266 17.717 37.858 43.418 62.056 81.794 87.55l0.162 0.108v-0.001c19.921 13.088 40.999 24.324 62.97 33.567l0.155 0.065c2.123 0.882 3.975 1.713 6.136 2.681 0.339 0.152 0.686 0.307 1.042 0.467 2.314 1.035 5.633 2.517 9.104 3.778 7.727 2.807 19.039 5.611 32.659 2.54 12.077-2.723 21.702-9.17 28.974-14.881 7.513-5.9 15.897-13.794 25.444-23.222zM210.498 855.188c-17.647-7.429-34.578-16.454-50.584-26.962-31.999-21.267-45.374-35.931-54.985-56.467-6.034-12.893-18.677-67.413 49.652-191.534 68.851-125.072 116.203-187.752 216.169-287.433 99.627-99.343 175.528-152.307 288.301-215.552 68.949-38.612 113.414-52.266 141.881-55.816 26.704-3.33 40.512 2.025 50.081 6.485 20.708 9.645 35.438 22.93 56.661 54.799 10.536 15.974 19.581 32.886 27.022 50.517 0.751 1.801 1.494 3.501 2.169 5.025-3.205 3.69-7.9 8.681-14.802 15.652-14.408 14.51-41.347 34.315-71.71 53.957-29.776 19.263-60.022 36.572-79.11 46.198-13.885 6.994-22.642 11.374-29.522 14.181-4.335 1.767-6.531 2.306-7.38 2.465-0.455-0.171-1.252-0.508-2.473-1.149-4.244-2.234-10.255-6.288-20.852-14.162-2.295-1.707-4.798-3.626-7.468-5.67-10.293-7.892-23.025-17.658-35.609-24.204-18.921-9.849-40.736-14.837-66.962-9.243-22.793 4.862-53.237 19.175-84.317 38.537-31.987 19.922-67.721 47.104-101.122 80.395-33.398 33.288-61.176 69.446-81.666 101.82-19.835 31.338-34.923 62.411-39.86 85.405-5.659 26.359-0.482 48.181 9.433 66.99 6.349 12.043 15.881 24.537 23.557 34.598 2.222 2.913 4.289 5.622 6.078 8.057 7.18 9.776 10.781 15.355 12.704 19.219 0.842 1.692 1.096 2.547 1.162 2.798 0.033 0.124 0.033 0.155 0.029 0.123-0.005-0.034-0.003-0.045-0.003-0.002 0 0.218-0.038 2.474-2.59 9.352-2.615 7.050-6.706 16.021-13.095 29.759-8.632 18.512-25.626 48.17-45.134 77.833-19.752 30.034-40.019 56.906-54.709 71.357l-0.054 0.054c-7.019 6.932-12.030 11.635-15.732 14.837-1.556-0.688-3.305-1.448-5.16-2.22zM363.574 609.682v0c371.252-338.831 371.195-338.846 371.097-338.865 0.114 0.034 0.167 0.042 0.163 0.038z" />
<glyph unicode="&#xe90d;" glyph-name="chevron-compact-up" d="M497.664 604.608c4.176 2.138 9.11 3.391 14.336 3.391s10.16-1.253 14.517-3.475l-0.181 0.084 384-192c10.68-5.335 17.886-16.185 17.886-28.719 0-17.673-14.327-32-32-32-5.314 0-10.325 1.295-14.735 3.587l0.178-0.084-369.664 184.768-369.664-184.768c-4.233-2.208-9.244-3.503-14.558-3.503-17.673 0-32 14.327-32 32 0 12.534 7.206 23.384 17.701 28.635l0.185 0.084 384 192z" />
<glyph unicode="&#xe90e;" glyph-name="chevron-right" d="M255.985-51.067c-21.134 18.785-23.038 51.149-4.252 72.284l379.364 426.783-379.364 426.785c-18.786 21.134-16.883 53.496 4.252 72.283s53.496 16.883 72.283-4.252l409.6-460.8c17.246-19.399 17.246-48.633 0-68.033l-409.6-460.8c-18.786-21.13-51.148-23.035-72.283-4.25z" />
<glyph unicode="&#xe90f;" glyph-name="chevron-up" d="M545.942 698.952l388.686-388.686c18.746-18.746 18.746-49.138 0-67.882l-45.334-45.334c-18.714-18.714-49.044-18.75-67.802-0.080l-309.492 308.040-309.49-308.042c-18.758-18.67-49.088-18.634-67.802 0.080l-45.334 45.334c-18.746 18.746-18.746 49.138 0 67.882l388.686 388.686c18.744 18.746 49.136 18.746 67.882 0.002z" />
<glyph unicode="&#xe910;" glyph-name="chevron-up-light" d="M489.344 662.656c5.794 5.808 13.805 9.401 22.656 9.401s16.862-3.593 22.655-9.401l384.001-384.001c5.798-5.798 9.384-13.808 9.384-22.656 0-17.695-14.345-32.040-32.040-32.040-8.848 0-16.858 3.586-22.656 9.384v0l-361.344 361.408-361.344-361.408c-5.798-5.798-13.808-9.384-22.656-9.384-17.695 0-32.040 14.345-32.040 32.040 0 8.848 3.586 16.858 9.384 22.656l384 384z" />
<glyph unicode="&#xe911;" glyph-name="easel" d="M1023.989-30.967h-33.033v-33.033h33.033v33.033zM792.774 794.839v132.129h-264.258v33.032h-33.033v-33.032h-264.258v-356.872l-99.096 57.208v2.374h-4.088l-3.572 2.065-1.198-2.065h-123.272v-231.226c0-36.439 29.626-66.065 66.064-66.065h165.161v-66.065h145.012l-59.459-297.291h-316.779v-33.032h957.935v33.032h-250.714l-59.459 297.291h145.012v264.259h132.129v33.032h-28.408l29.894 119.535-61.233 76.532c61.998-10.859 109.295-64.949 109.295-130.002h33.032c0 54.048-26.219 101.987-66.498 132.128h83.014v33.033h-231.226zM99.097 398.452c0-18.209-14.823-33.033-33.032-33.033s-33.032 14.824-33.032 33.033v198.193h66.065v-198.193zM221.172 526.142l33.032-57.187-106.735-61.647 66.044 114.415 7.66 4.419zM132.129 578.932l4.439 7.7 57.187-33.032-61.626-106.776v132.108zM140.945 365.419l114.436 66.065h8.877v-66.065h-123.313zM495.484-30.968h-145.012l59.459 297.291h85.553v-297.291zM673.528-30.968h-145.012v297.291h85.553l59.459-297.291zM758.255 683.148l29.894-119.535h-28.407v-264.258h-495.485v33.032h33.033v123.293l2.044 1.198-2.044 3.531v4.108h-2.374l-30.659 53.099v376.32h495.485v-99.097h-99.098v-33.033h83.014c-40.278-30.141-66.498-78.080-66.498-132.128h33.033c0 65.053 47.298 119.144 109.295 130.024l-61.234-76.553zM890.385 675.282l-27.913-111.669h-40.299l-27.912 111.691 31.546 39.432v-68.541h33.032v68.521l31.546-39.433zM363.359 827.872h-33.033v-33.033h33.033v33.033zM693.684 398.453h-33.032v-33.033h33.032v33.033zM660.638 596.646c0 81.961-66.684 148.645-148.645 148.645-26.715 0-51.758-7.184-73.455-19.571l-45.316 62.307-26.715-19.427 45.379-62.391c-29.751-27.189-48.538-66.167-48.538-109.564 0-81.961 66.685-148.645 148.646-148.645 26.714 0 51.757 7.184 73.455 19.571l45.316-62.307 26.714 19.427-45.378 62.391c29.749 27.189 48.536 66.167 48.536 109.564zM511.993 481.033c-63.732 0-115.613 51.881-115.613 115.613 0 32.413 13.46 61.729 35.034 82.725l134.483-184.939c-16.125-8.506-34.436-13.399-53.905-13.399zM458.089 698.84c16.124 8.526 34.436 13.419 53.905 13.419 63.732 0 115.613-51.881 115.613-115.613 0-32.413-13.461-61.729-35.035-82.725l-134.482 184.919z" />
<glyph unicode="&#xe912;" glyph-name="envelope" d="M939.2 788.8h-854.4c-46.4 0-84.8-38.4-84.8-84.8v-512c0-46.4 38.4-84.8 84.8-84.8h852.8c46.4 0 84.8 38.4 84.8 84.8v512c1.6 46.4-36.8 84.8-83.2 84.8zM836.8 704l-307.2-187.2c-8-4.8-20.8-4.8-30.4 0l-312 187.2h649.6zM84.8 192v473.6l366.4-222.4c17.6-12.8 38.4-17.6 59.2-17.6s43.2 4.8 59.2 17.6l366.4 222.4v-473.6h-851.2z" />
<glyph unicode="&#xe913;" glyph-name="facebook" d="M737.473 373.895l26.528 174.316h-168.632v113.684c0 49.263 22.737 94.737 98.526 94.737h77.684v149.684c0 0-70.105 13.263-136.421 13.263-138.316 0-229.263-85.263-229.263-236.842v-134.526h-155.368v-174.316h155.368v-424.421h189.474v424.421h142.105z" />
<glyph unicode="&#xe914;" glyph-name="house" d="M1024 481.032v41.477l-490.136 354.911h-43.727l-110.265-79.835v63.319h33.032v99.097h-330.322v-99.097h33.032v-254.678l-115.613-83.717v-41.477h82.581v-247.742h-82.581v-231.226h82.581v-66.064h858.838v346.839c45.544 0 82.581 37.037 82.581 82.58s-37.037 82.581-82.581 82.581v33.032h82.581zM115.613 926.968h264.258v-33.032h-264.258v33.032zM346.839 860.903v-87.246l-198.194-143.525v230.771h198.194zM66.064 101.161v-66.064h-33.032v165.161h759.742v-165.161h-33.032v66.064h-33.032v-66.064h-33.033v66.064h-33.032v-66.064h-33.032v66.064h-33.032v-66.064h-33.033v66.064h-33.032v-66.064h-33.032v66.064h-33.032v-66.064h-33.033v66.064h-33.032v-66.064h-33.032v66.064h-33.032v-66.064h-33.033v66.064h-33.032v-66.064h-33.032v66.064h-33.032v-66.064h-33.033v66.064h-33.032v-66.064h-33.032v66.064h-33.032zM908.387-30.968h-792.774v33.032h710.194v231.226h-710.194v247.742h792.774v-33.032h-599.577l-123.871-82.581 123.871-82.58h599.577v-313.807zM875.355 414.968v-99.097h-33.032v99.097h33.032zM346.839 381.935v33.033h462.451v-33.033h-462.451zM809.29 348.903v-33.032h-462.451v33.032h462.451zM313.806 411.623v-92.429l-69.326 46.224 69.326 46.204zM990.968 365.419c0-27.313-22.236-49.548-49.549-49.548h-33.032v99.097h33.032c27.313 0 49.549-22.236 49.549-49.549zM924.903 514.064h-880.227l456.154 330.323h22.339l456.154-330.323h-54.421zM511.995 794.839c-72.856 0-132.129-59.273-132.129-132.129s59.273-132.129 132.129-132.129c72.856 0 132.129 59.273 132.129 132.129s-59.273 132.129-132.129 132.129zM511.995 563.613c-54.647 0-99.097 44.45-99.097 99.097s44.45 99.097 99.097 99.097c54.647 0 99.097-44.45 99.097-99.097s-44.45-99.097-99.097-99.097z" />
<glyph unicode="&#xe915;" glyph-name="instagram" d="M512 697.889c-135.111 0-242.778-109.778-242.778-242.778 0-135.111 107.667-242.779 242.778-242.779 133.001 0 242.779 107.668 242.779 242.779 0 133-109.778 242.778-242.779 242.778zM512 296.778c-86.555 0-158.333 69.666-158.333 158.333 0 86.555 69.667 156.222 158.333 156.222 86.556 0 156.223-69.667 156.223-156.222 0-88.667-69.666-158.333-156.223-158.333zM820.224 706.334c0 31.667-25.333 57-57.003 57-31.664 0-56.997-25.333-56.997-57s25.333-57 56.997-57c31.67 0 57.003 25.334 57.003 57zM980.668 649.333c-4.221 76-21.111 143.556-76.004 198.444-54.886 54.889-122.442 71.778-198.44 76-78.114 4.222-312.446 4.222-390.558 0-76-4.222-141.445-21.111-198.444-76-54.889-54.889-71.778-122.444-76-198.444-4.222-78.111-4.222-312.443 0-390.557 4.222-75.998 21.111-141.443 76-198.446 57-54.886 122.444-71.777 198.444-75.998 78.111-4.221 312.443-4.221 390.558 0 75.998 4.221 143.553 21.111 198.44 75.998 54.892 57.003 71.782 122.448 76.004 198.446 4.221 78.114 4.221 312.446 0 390.557zM879.332 176.447c-14.774-42.223-48.555-73.893-88.667-90.778-63.329-25.338-211.109-19.001-278.665-19.001-69.667 0-217.445-6.337-278.667 19.001-42.222 16.885-73.889 48.555-90.778 90.778-25.333 61.218-19 208.998-19 278.665 0 67.556-6.333 215.334 19 278.667 16.889 40.111 48.556 71.778 90.778 88.666 61.222 25.333 209 19 278.667 19 67.556 0 215.336 6.333 278.665-19 40.112-14.777 71.782-48.555 88.667-88.666 25.333-63.333 19.001-211.111 19.001-278.667 0-69.666 6.332-217.446-19.001-278.665z" />
<glyph unicode="&#xe916;" glyph-name="linkedin" d="M249.411-33.882v633.177h-196.941v-633.177h196.941zM149.882 684c63.53 0 114.353 52.941 114.353 116.47 0 61.412-50.824 112.235-114.353 112.235-61.412 0-112.235-50.824-112.235-112.235 0-63.529 50.824-116.47 112.235-116.47zM984.233-33.882h2.12v347.293c0 169.413-38.117 300.707-237.176 300.707-95.292 0-158.824-52.941-186.353-101.647h-2.118v86.824h-188.47v-633.177h196.941v313.41c0 82.59 14.823 160.943 116.47 160.943s103.767-93.178 103.767-167.291v-307.061h194.819z" />
<glyph unicode="&#xe917;" glyph-name="planet-earth" d="M1002.4 595.931c0.141 0.634 0.294 1.246 0.425 1.899l-1.060 0.211c-24.156 79.208-67.515 151.782-127.729 211.997-96.704 96.704-225.279 149.962-362.038 149.962s-265.334-53.258-362.038-149.964c-96.704-96.704-149.958-225.279-149.958-362.038s53.256-265.334 149.958-362.038 225.277-149.96 362.038-149.96c136.761 0 265.334 53.256 362.040 149.96s149.962 225.279 149.962 362.038c-0.002 50.85-7.379 100.565-21.6 147.933zM736.419 860.412c36.126-19.725 69.83-44.341 100.266-73.538-2.839-7.904-7.665-16.597-15.157-16.597-0.117 0-0.235 0.002-0.354 0.006-6.432 0.233-13.888 2.679-21.781 5.267-11.959 3.921-25.517 8.371-40.919 7.127-15.074-1.21-27.996-7.573-39.394-13.186-10.686-5.261-19.912-9.811-26.524-8.158-6.287 1.566-12.864 9.478-19.612 18.148-2.999 3.853-4.855 6.615-5.538 8.237 0.804 1.342 2.441 3.46 3.311 4.587 8.495 10.995 22.844 25.069 36.721 38.679 10.012 9.822 20.218 19.855 28.981 29.427zM586.383 911.473c-2.487-15.887-9.359-36.828-15.58-44.522-6.876-8.501-19.029-12.427-27.093-8.755-8.134 3.708-14.575 15.294-17.224 30.993-1.737 10.291-5.161 19.59-8.774 28.072 23.208-0.273 46.144-2.221 68.672-5.788zM180.132 779.866c55.665 55.665 122.854 95.616 196.183 117.644 8.855-29.116 19.639-56.392 30.157-82.169 8.051-19.74 17.18-42.11 15.119-62.355-0.789-7.753-2.758-17.666-7.667-20.877-4.269-2.795-12.838-3.509-21.907-4.267-14.95-1.248-33.555-2.801-50.502-14.701-3.62-2.541-6.982-5.169-10.231-7.706-6.982-5.455-13.579-10.605-19.729-12.328-6.080-1.707-13.914-0.813-22.989 0.222-5.212 0.593-10.603 1.205-16.307 1.393-18.108 0.666-59.383-8.034-77.354-31.505-8.881-11.599-11.439-25.619-7.202-39.479 3.138-10.272 9.862-17.438 16.030-23.095 28.806-26.411 68.341-45.116 108.462-51.324 5.739-0.887 11.294-1.566 16.668-2.225 29.421-3.601 44.057-6.219 55.185-26.27 2.771-4.994 5.003-10.906 7.366-17.165 2.72-7.209 5.534-14.662 9.632-22.176 12.168-22.321 32.683-35.396 53.517-34.236 15.552 0.896 27.038 9.013 36.267 15.533 4.258 3.008 8.279 5.85 11.72 7.283 9.248 3.861 23.366 0.433 37.749-9.154 9.864-6.577 22.626-17.457 27.403-31.936 3.595-10.893 1.107-23.503-5.867-29.397l-62.698-53.549c-20.19-17.246-41.792-38.187-42.519-68.554-0.23-9.604 1.751-18.827 3.499-26.965 1.225-5.694 3.27-15.226 2.172-17.715-1.15-1.022-6.526-2.34-9.736-3.127-5.658-1.385-12.068-2.955-18.583-6.246-31.586-15.949-34.536-53.734-36.491-78.741-1.417-18.14-8.145-33.406-15.004-34.033-5.579-0.535-13.457 9.109-16.194 19.799-1.698 6.633-2.496 14.027-3.341 21.856-1.216 11.279-2.596 24.064-7.125 36.619-5.837 16.177-15.998 29.512-24.962 41.278-8.804 11.558-17.122 22.475-19.808 33.83-2.012 8.506-1.201 18.726-0.339 29.551 1.097 13.781 2.338 29.401-2.033 45.301-6.212 22.6-21.606 38.75-35.189 53.002-8.919 9.357-17.344 18.195-22.349 27.744-6.033 11.511-5.284 23.578-4.416 37.549 0.821 13.242 1.754 28.252-3.518 43.695-5.265 15.422-17.711 24.331-26.929 30.931-27.025 19.347-52.339 41.38-75.236 65.489-12.241 12.887-24.207 26.963-28.843 42.543-1.212 4.073-2.050 7.149-2.709 9.555-2.929 10.726-4.655 14.558-10.81 21.37 21.425 39.624 48.717 76.364 81.461 109.109zM511.998-21.334c-125.363 0-243.222 48.819-331.866 137.465-88.644 88.644-137.463 206.504-137.463 331.866 0 59.298 10.938 116.913 31.831 170.557 8.062-19.906 21.751-36.068 35.597-50.645 24.755-26.063 52.121-49.884 81.465-70.888 4.145-2.97 10.413-7.456 11.258-9.933 2.541-7.445 1.971-16.634 1.312-27.268-1.050-16.9-2.353-37.928 9.21-59.993 7.782-14.85 18.699-26.302 29.254-37.378 11.573-12.141 21.568-22.628 24.932-34.873 2.385-8.676 1.538-19.334 0.642-30.613-1.033-12.996-2.204-27.725 1.35-42.752 4.772-20.181 16.789-35.953 27.39-49.866 7.793-10.229 15.153-19.889 18.765-29.901 2.793-7.74 3.787-16.958 4.838-26.716 0.969-8.979 1.971-18.263 4.429-27.861 6.775-26.47 28.252-51.914 56.921-51.912 1.474 0 2.972 0.066 4.484 0.205 29.788 2.718 50.349 30.769 53.662 73.201 1.28 16.397 3.034 38.852 13.184 43.974 2.167 1.097 5.73 1.969 9.502 2.891 8.71 2.133 20.636 5.054 30.103 14.75 17.346 17.764 12.54 40.149 9.028 56.49-1.372 6.391-2.669 12.427-2.56 16.983 0.307 12.794 14.396 25.877 27.575 37.135l62.619 53.487c20.384 17.237 27.921 47.488 18.754 75.274-6.797 20.602-22.099 39.298-44.258 54.071-27.063 18.035-54.701 22.664-77.822 13.039-7.802-3.249-14.248-7.806-19.938-11.825-5.28-3.731-10.739-7.59-14.099-7.782-3.351-0.215-9.348 4.265-13.6 12.062-2.684 4.924-4.864 10.703-7.174 16.821-2.799 7.415-5.694 15.083-9.975 22.801-22.17 39.949-56.776 44.181-87.308 47.919-5.043 0.617-10.257 1.254-15.328 2.039-32.002 4.947-63.402 19.748-86.148 40.601-2.869 2.63-3.819 3.829-4.128 4.346-0.030 0.119-0.049 0.211-0.060 0.277 2.818 6.556 28.373 15.778 42.474 15.368 3.987-0.132 8.307-0.625 12.881-1.146 11.814-1.346 25.203-2.874 39.332 1.088 14.263 3.998 25.003 12.386 34.479 19.784 2.959 2.313 5.756 4.495 8.488 6.415 7.492 5.261 17.707 6.112 29.534 7.1 23.396 1.952 62.555 5.22 68.473 63.341 3.138 30.829-8.616 59.641-18.061 82.792-9.864 24.181-19.979 49.679-28.237 76.441 17.756 3.601 35.795 6.17 54.050 7.71 1.022-2.34 2.050-4.653 3.074-6.925 4.164-9.246 8.098-17.978 9.555-26.596 5.158-30.568 19.934-52.845 41.6-62.718 7.757-3.535 16.126-5.229 24.567-5.229 19.757 0 39.9 9.286 53.399 25.986 10.863 13.442 20.337 39.565 24.156 62.788 23.285-5.901 46.005-13.596 68.015-22.982-5.901-6.037-12.292-12.309-18.592-18.485-14.908-14.622-30.321-29.739-40.608-43.057-4.073-5.271-10.225-13.235-11.966-24.254-2.955-18.711 8.691-33.672 14.287-40.862 8.702-11.181 21.854-28.077 42.957-33.342 4.557-1.135 8.983-1.63 13.274-1.628 16.207 0 30.47 7.023 42.421 12.909 8.747 4.307 17.009 8.375 23.959 8.934 6.85 0.559 14.897-2.089 24.213-5.141 9.877-3.238 21.073-6.908 33.527-7.36 19.938-0.736 36.693 8.772 48.205 26.425 40.126-46.504 70.274-99.671 89.38-156.857-3.14-2.27-9.532-2.569-24.533-2.756-6.517-0.081-13.903-0.173-21.777-0.779-21.933-1.683-38.895 4.597-58.532 11.874-13.184 4.885-26.816 9.937-43.114 13.175-41.062 8.173-83.494-14.775-108.1-58.445-4.474-7.94-42.89-78.696-14.466-117.847 10.62-14.624 25.653-23.639 37.734-30.884 17.135-10.27 34.854-20.89 54.479-28.806 4.201-1.696 8.444-3.262 12.546-4.777 14.929-5.51 29.028-10.716 35.94-20.175 5.783-7.917 7.699-20.446 5.86-38.304-1.397-13.553-6.447-27.328-11.795-41.909-11.991-32.704-26.916-73.406 8.070-113.384 9.978-11.4 21.956-20.083 35.206-25.788-6.697-7.607-13.634-15.051-20.864-22.28-88.648-88.646-206.508-137.465-331.871-137.465zM893.206 174.092c-12.171 2.18-22.952 8.356-31.573 18.206-17.51 20.008-12.083 37.967-0.119 70.596 6.016 16.401 12.235 33.365 14.178 52.222 2.972 28.834-1.557 51.027-13.85 67.85-14.507 19.857-36.348 27.919-55.616 35.031-3.985 1.47-7.748 2.861-11.36 4.316-16.523 6.667-32.057 15.976-48.503 25.832-9.658 5.792-19.646 11.778-25.148 19.356-6.763 9.314 1.553 44.226 17.111 71.835 11.688 20.738 35.102 43.004 62.613 37.542 12.971-2.577 24.45-6.831 36.606-11.334 22.304-8.264 45.376-16.83 76.631-14.408 6.507 0.499 12.879 0.58 19.040 0.659 11.083 0.139 23.938 0.307 35.684 4.132 8.19-34.967 12.431-71.119 12.431-107.929 0-99.692-30.903-194.621-88.125-273.906z" />
<glyph unicode="&#xe918;" glyph-name="play" d="M511.998-64c-282.769 0-511.998 229.229-511.998 511.998s229.229 512 511.998 512c282.769 0 512-229.23 512-512-0.3-282.643-229.354-511.696-512-511.998zM727.622 464.312c-3.545 7.11-9.306 12.875-16.418 16.418v0.183l-292.57 146.287c-18.070 9.027-40.033 1.702-49.063-16.367-2.567-5.137-3.889-10.807-3.857-16.548v-292.57c-0.009-20.198 16.357-36.579 36.555-36.589 5.68-0.002 11.284 1.318 16.365 3.857l292.57 146.287c18.077 9.008 25.429 30.966 16.418 49.043z" />
<glyph unicode="&#xe919;" glyph-name="quote_left" d="M233.909 77.312c-67.356 0-121.97 23.665-163.84 70.997-40.050 49.152-60.075 112.869-60.075 191.147 0 101.946 30.037 196.608 90.112 283.989 60.075 89.202 134.713 155.648 223.915 199.339l16.384-32.768c-38.229-29.127-71.907-66.446-101.035-111.957s-50.062-101.945-62.805-169.301l57.344-13.653c63.716-14.565 112.868-41.871 147.456-81.92 36.41-38.229 54.613-84.651 54.613-139.264 0-58.255-20.026-105.585-60.075-141.995-38.229-36.41-85.56-54.613-141.994-54.613zM810.080 77.312c-67.355 0-121.969 23.665-163.84 70.997-40.049 49.152-60.075 112.869-60.075 191.147 0 101.946 30.037 196.608 90.112 283.989 60.075 89.202 134.714 155.648 223.915 199.339l16.384-32.768c-38.229-29.127-71.909-66.446-101.035-111.957s-50.063-101.945-62.805-169.301l57.344-13.653c63.717-14.565 112.869-41.871 147.456-81.92 36.41-38.229 54.613-84.651 54.613-139.264 0-58.255-20.026-105.585-60.075-141.995-38.229-36.41-85.562-54.613-141.995-54.613z" />
<glyph unicode="&#xe91a;" glyph-name="quote_right" d="M812.995 827.157c60.886 0 110.703-20.296 149.449-60.886 36.9-40.591 55.351-95.020 55.351-163.286 0-119.928-39.669-224.173-119.005-312.735-81.182-88.562-178.047-161.442-290.595-218.638l-27.676 47.049c46.126 29.52 89.484 67.345 130.076 113.47 38.746 46.126 69.189 95.942 91.33 149.449l-77.492 58.119c-31.366 20.296-57.197 47.972-77.492 83.027-20.296 33.211-30.443 65.499-30.443 96.865 0 59.042 18.45 108.858 55.351 149.449 35.055 38.746 82.104 58.119 141.146 58.119zM242.876 827.157c60.886 0 110.703-20.296 149.449-60.887 36.9-40.591 55.351-95.020 55.351-163.286 0-119.928-39.669-224.173-119.005-312.735-81.182-88.562-178.047-161.442-290.595-218.638l-27.676 47.049c46.126 29.52 89.485 67.345 130.076 113.47 38.746 46.126 69.189 95.942 91.33 149.449l-77.492 58.119c-31.366 20.296-57.197 47.972-77.492 83.027-20.296 33.211-30.443 65.499-30.443 96.865 0 59.042 18.451 108.858 55.351 149.449 35.056 38.746 82.105 58.119 141.146 58.119z" />
<glyph unicode="&#xe91b;" glyph-name="search" d="M751.488 297.984c50.265 67.948 80.455 153.397 80.455 245.897 0 229.75-186.25 416-416 416s-416-186.25-416-416c0-229.75 186.25-416 416-416 92.605 0 178.143 30.259 247.265 81.429l-1.128-0.798h-0.064c1.92-2.56 3.968-4.992 6.272-7.36l246.4-246.4c11.586-11.594 27.595-18.765 45.28-18.765 35.353 0 64.013 28.66 64.013 64.013 0 17.669-7.158 33.665-18.733 45.248l-246.4 246.4c-2.242 2.269-4.645 4.367-7.194 6.28l-0.166 0.12zM768 544c0-194.404-157.596-352-352-352s-352 157.596-352 352v0c0 194.404 157.596 352 352 352s352-157.596 352-352v0z" />
<glyph unicode="&#xe91c;" glyph-name="stairs" d="M985.872 736v224h-323.097v-352h-64.62v-192h-280.004v-192h-280.024v-288h872.362v672h-215.405v128h290.788zM695.085 928h258.478v-160h-258.478v160zM350.462 384h247.714v-53.34h-247.714v53.34zM70.437 192h247.714v-53.34h-247.714v53.34zM878.18-32h-807.743v138.66h247.714v-69.34h32.31v261.34h247.714v-112.001h32.309v304.001h247.695v-522.66zM878.18 576v-53.34h-247.714v53.34h247.714zM905.106 896h-75.383v-32h75.383v32zM905.102 832h-161.548v-32h161.548v32zM388.15 842.66v-32h90.245l-403.225-399.34 22.859-22.64 403.204 399.36v-68.039h32.31v122.66h-145.394zM140.435 74.66h-43.073v-32h43.073v32zM291.222 74.66h-43.073v-32h43.073v32zM420.455 266.66h-43.072v-32h43.072v32zM571.243 266.66h-43.072v-32h43.072v32zM700.477 458.659h-43.072v-32h43.072v32zM851.244 458.659h-43.073v-32h43.073v32z" />
<glyph unicode="&#xe91d;" glyph-name="star" d="M410.392 845.21c29.194 89.85 156.309 89.85 185.502 0l49.566-152.56c13.058-40.182 50.503-67.387 92.755-67.387h160.407c94.476 0 133.754-120.892 57.324-176.422l-129.775-94.287c-34.182-24.834-48.484-68.852-35.426-109.036l49.566-152.561c29.194-89.849-73.64-164.562-150.075-109.032l-129.775 94.286c-34.177 24.834-80.464 24.834-114.645 0l-129.775-94.286c-76.431-55.53-179.268 19.183-150.074 109.032l49.57 152.561c13.056 40.185-1.247 84.202-35.427 109.036l-129.775 94.287c-76.431 55.53-37.151 176.422 57.323 176.422h160.411c42.25 0 79.695 27.206 92.751 67.387l49.57 152.56z" />
<glyph unicode="&#xe91e;" glyph-name="stationery" d="M699.733 55.467h-34.133v733.867c0 3.413-1.707 8.533-3.413 10.24l-49.493 148.48c-1.707 6.827-8.533 11.947-15.36 11.947s-13.653-5.12-15.36-11.947l-49.493-148.48c-1.707-3.413-3.413-6.827-3.413-10.24v-836.267c0-10.24 6.827-17.067 17.067-17.067h102.4c10.24 0 17.067 6.827 17.067 17.067v68.267h51.2c10.24 0 17.067 6.827 17.067 17.067v512h-34.133v-494.933zM563.2 772.267h68.267v-614.4h-68.267v614.4zM597.333 888.32l27.307-81.92h-54.613l27.307 81.92zM631.467-29.867h-68.267v153.6h68.267v-153.6zM1006.933 960h-187.733c-10.24 0-17.067-6.827-17.067-17.067v-989.867c0-10.24 6.827-17.067 17.067-17.067h187.733c10.24 0 17.067 6.827 17.067 17.067v989.867c0 10.24-6.827 17.067-17.067 17.067zM989.867-29.867h-153.6v119.467h85.333v34.133h-85.333v136.533h85.333v34.133h-85.333v136.533h85.333v34.133h-85.333v136.533h85.333v34.133h-85.333v136.533h85.333v34.133h-85.333v119.467h153.6v-955.733zM238.933 789.338c-131.413 0-238.933-107.52-238.933-238.933 0-92.16 52.907-175.787 136.533-215.040v-211.627c0-10.24 6.827-17.067 17.067-17.067h68.267v-51.2h34.133v51.2h68.267c10.24 0 17.067 6.827 17.067 17.067v211.627c83.627 39.253 136.533 122.88 136.533 215.040 0 131.413-107.52 238.933-238.933 238.933zM307.2 140.805h-136.533v51.2h136.533v-51.2zM317.44 360.965c-6.827-1.707-10.24-8.533-10.24-15.36v-119.467h-136.533v34.133h85.333v34.133h-85.333v51.2c0 6.827-3.413 13.653-10.24 15.36-76.8 32.427-126.293 107.52-126.293 189.44 0 112.64 92.16 204.8 204.8 204.8s204.8-92.16 204.8-204.8c0-81.92-49.493-157.013-126.293-189.44zM278.2 647.674l-39.253-39.253-39.253 39.253-23.893-23.893 46.080-46.080v-180.907h34.133v180.907l46.080 46.080-23.893 23.893z" />
<glyph unicode="&#xe91f;" glyph-name="twitter" d="M896.631 658.526c37.893 28.421 72.003 62.527 98.525 102.316-34.105-15.158-73.89-26.526-113.68-30.316 41.682 24.632 71.998 62.526 87.159 109.895-37.899-22.737-81.478-39.789-125.057-49.263-37.893 39.789-89.050 62.526-145.893 62.526-109.897 0-198.946-89.053-198.946-198.947 0-15.158 1.894-30.316 5.684-45.474-164.842 9.474-312.632 89.052-411.158 208.421-17.053-28.421-26.526-62.527-26.526-100.422 0-68.21 34.105-128.842 89.052-164.842-32.21 1.895-64.421 9.474-90.947 24.632v-1.894c0-96.632 68.211-176.211 159.158-195.158-15.158-3.789-34.105-7.579-51.158-7.579-13.263 0-24.632 1.894-37.894 3.789 24.632-79.579 98.526-136.422 185.684-138.314-68.211-53.054-153.474-85.267-246.316-85.267-17.053 0-32.211 1.897-47.369 3.789 87.158-56.837 191.368-89.050 305.053-89.050 365.683 0 564.63 301.263 564.63 564.631 0 9.474 0 17.053 0 26.526z" />
</font>
</defs>
</svg>
